STARTFONT 2.1
COMMENT Font converted from FNT/FON to BDF.
FONT -Windows-MicroKnightPlus v1.0-Medium-R-Normal--16-120-96-96-P-80-ISO8859-1
SIZE 12 96 96
FONTBOUNDINGBOX 8 16 0 -3
STARTPROPERTIES 16
FOUNDRY "Windows"
FAMILY_NAME "MicroKnightPlus v1.0"
WEIGHT_NAME "Medium"
SLANT "R"
SETWIDTH_NAME "Normal"
PIXEL_SIZE 16
POINT_SIZE 120
RESOLUTION_X 96
RESOLUTION_Y 96
FONT_ASCENT 13
FONT_DESCENT -3
AVERAGE_WIDTH 80
SPACING "P"
CHARSET_REGISTRY "ISO8859"
CHARSET_ENCODING "1"
_GBDFED_INFO "Edited with gbdfed 1.6."
ENDPROPERTIES
CHARS 255
STARTCHAR char1
ENCODING 1
SWIDTH 44 0
DWIDTH 8 0
BBX 0 0 0 0
BITMAP
ENDCHAR
STARTCHAR char2
ENCODING 2
SWIDTH 44 0
DWIDTH 8 0
BBX 0 0 0 0
BITMAP
ENDCHAR
STARTCHAR char3
ENCODING 3
SWIDTH 44 0
DWIDTH 8 0
BBX 0 0 0 0
BITMAP
ENDCHAR
STARTCHAR char4
ENCODING 4
SWIDTH 44 0
DWIDTH 8 0
BBX 0 0 0 0
BITMAP
ENDCHAR
STARTCHAR char5
ENCODING 5
SWIDTH 44 0
DWIDTH 8 0
BBX 0 0 0 0
BITMAP
ENDCHAR
STARTCHAR char6
ENCODING 6
SWIDTH 44 0
DWIDTH 8 0
BBX 0 0 0 0
BITMAP
ENDCHAR
STARTCHAR char7
ENCODING 7
SWIDTH 44 0
DWIDTH 8 0
BBX 0 0 0 0
BITMAP
ENDCHAR
STARTCHAR char8
ENCODING 8
SWIDTH 44 0
DWIDTH 8 0
BBX 0 0 0 0
BITMAP
ENDCHAR
STARTCHAR char9
ENCODING 9
SWIDTH 44 0
DWIDTH 8 0
BBX 0 0 0 0
BITMAP
ENDCHAR
STARTCHAR char10
ENCODING 10
SWIDTH 44 0
DWIDTH 8 0
BBX 0 0 0 0
BITMAP
ENDCHAR
STARTCHAR char11
ENCODING 11
SWIDTH 44 0
DWIDTH 8 0
BBX 0 0 0 0
BITMAP
ENDCHAR
STARTCHAR char12
ENCODING 12
SWIDTH 44 0
DWIDTH 8 0
BBX 0 0 0 0
BITMAP
ENDCHAR
STARTCHAR char13
ENCODING 13
SWIDTH 44 0
DWIDTH 8 0
BBX 0 0 0 0
BITMAP
ENDCHAR
STARTCHAR char14
ENCODING 14
SWIDTH 44 0
DWIDTH 8 0
BBX 0 0 0 0
BITMAP
ENDCHAR
STARTCHAR char15
ENCODING 15
SWIDTH 44 0
DWIDTH 8 0
BBX 0 0 0 0
BITMAP
ENDCHAR
STARTCHAR char16
ENCODING 16
SWIDTH 44 0
DWIDTH 8 0
BBX 0 0 0 0
BITMAP
ENDCHAR
STARTCHAR char17
ENCODING 17
SWIDTH 44 0
DWIDTH 8 0
BBX 0 0 0 0
BITMAP
ENDCHAR
STARTCHAR char18
ENCODING 18
SWIDTH 44 0
DWIDTH 8 0
BBX 0 0 0 0
BITMAP
ENDCHAR
STARTCHAR char19
ENCODING 19
SWIDTH 44 0
DWIDTH 8 0
BBX 0 0 0 0
BITMAP
ENDCHAR
STARTCHAR char20
ENCODING 20
SWIDTH 44 0
DWIDTH 8 0
BBX 0 0 0 0
BITMAP
ENDCHAR
STARTCHAR char21
ENCODING 21
SWIDTH 44 0
DWIDTH 8 0
BBX 0 0 0 0
BITMAP
ENDCHAR
STARTCHAR char22
ENCODING 22
SWIDTH 44 0
DWIDTH 8 0
BBX 0 0 0 0
BITMAP
ENDCHAR
STARTCHAR char23
ENCODING 23
SWIDTH 44 0
DWIDTH 8 0
BBX 0 0 0 0
BITMAP
ENDCHAR
STARTCHAR char24
ENCODING 24
SWIDTH 44 0
DWIDTH 8 0
BBX 0 0 0 0
BITMAP
ENDCHAR
STARTCHAR char25
ENCODING 25
SWIDTH 44 0
DWIDTH 8 0
BBX 0 0 0 0
BITMAP
ENDCHAR
STARTCHAR char26
ENCODING 26
SWIDTH 44 0
DWIDTH 8 0
BBX 0 0 0 0
BITMAP
ENDCHAR
STARTCHAR char27
ENCODING 27
SWIDTH 44 0
DWIDTH 8 0
BBX 0 0 0 0
BITMAP
ENDCHAR
STARTCHAR char28
ENCODING 28
SWIDTH 44 0
DWIDTH 8 0
BBX 0 0 0 0
BITMAP
ENDCHAR
STARTCHAR char29
ENCODING 29
SWIDTH 44 0
DWIDTH 8 0
BBX 0 0 0 0
BITMAP
ENDCHAR
STARTCHAR char30
ENCODING 30
SWIDTH 44 0
DWIDTH 8 0
BBX 0 0 0 0
BITMAP
ENDCHAR
STARTCHAR char31
ENCODING 31
SWIDTH 44 0
DWIDTH 8 0
BBX 0 0 0 0
BITMAP
ENDCHAR
STARTCHAR char32
ENCODING 32
SWIDTH 44 0
DWIDTH 8 0
BBX 0 0 0 0
BITMAP
ENDCHAR
STARTCHAR char33
ENCODING 33
SWIDTH 44 0
DWIDTH 8 0
BBX 2 14 3 -1
BITMAP
C0
C0
C0
C0
C0
C0
C0
C0
C0
C0
00
00
C0
C0
ENDCHAR
STARTCHAR char34
ENCODING 34
SWIDTH 44 0
DWIDTH 8 0
BBX 5 6 1 7
BITMAP
D8
D8
D8
D8
48
48
ENDCHAR
STARTCHAR char35
ENCODING 35
SWIDTH 44 0
DWIDTH 8 0
BBX 7 14 0 -1
BITMAP
6C
6C
6C
6C
FE
FE
6C
6C
FE
FE
6C
6C
6C
6C
ENDCHAR
STARTCHAR char36
ENCODING 36
SWIDTH 44 0
DWIDTH 8 0
BBX 8 16 0 -3
BITMAP
10
10
7C
7C
D0
D0
7C
7C
16
16
16
16
7C
7C
10
10
ENDCHAR
STARTCHAR char37
ENCODING 37
SWIDTH 44 0
DWIDTH 8 0
BBX 8 16 0 -3
BITMAP
60
60
96
96
6C
6C
18
18
30
30
6C
6C
D2
D2
0C
0C
ENDCHAR
STARTCHAR char38
ENCODING 38
SWIDTH 44 0
DWIDTH 8 0
BBX 8 16 0 -3
BITMAP
70
70
D8
D8
70
70
F6
F6
DC
DC
D8
D8
7C
7C
06
06
ENDCHAR
STARTCHAR char39
ENCODING 39
SWIDTH 44 0
DWIDTH 8 0
BBX 3 6 2 7
BITMAP
60
60
60
60
C0
C0
ENDCHAR
STARTCHAR char40
ENCODING 40
SWIDTH 44 0
DWIDTH 8 0
BBX 5 14 3 -1
BITMAP
18
38
70
60
C0
C0
C0
C0
C0
C0
60
70
38
18
ENDCHAR
STARTCHAR char41
ENCODING 41
SWIDTH 44 0
DWIDTH 8 0
BBX 5 14 0 -1
BITMAP
C0
E0
70
30
18
18
18
18
18
18
30
70
E0
C0
ENDCHAR
STARTCHAR char42
ENCODING 42
SWIDTH 44 0
DWIDTH 8 0
BBX 7 10 0 1
BITMAP
6C
6C
38
38
FE
FE
38
38
6C
6C
ENDCHAR
STARTCHAR char43
ENCODING 43
SWIDTH 44 0
DWIDTH 8 0
BBX 6 10 1 1
BITMAP
30
30
30
30
FC
FC
30
30
30
30
ENDCHAR
STARTCHAR char44
ENCODING 44
SWIDTH 44 0
DWIDTH 8 0
BBX 3 6 2 -3
BITMAP
60
60
60
60
C0
C0
ENDCHAR
STARTCHAR char45
ENCODING 45
SWIDTH 44 0
DWIDTH 8 0
BBX 8 2 0 5
BITMAP
FF
FF
ENDCHAR
STARTCHAR char46
ENCODING 46
SWIDTH 44 0
DWIDTH 8 0
BBX 2 4 3 -1
BITMAP
C0
C0
C0
C0
ENDCHAR
STARTCHAR char47
ENCODING 47
SWIDTH 44 0
DWIDTH 8 0
BBX 8 16 0 -3
BITMAP
03
03
06
06
0C
0C
18
18
30
30
60
60
C0
C0
80
80
ENDCHAR
STARTCHAR char48
ENCODING 48
SWIDTH 44 0
DWIDTH 8 0
BBX 7 12 0 -1
BITMAP
78
78
CC
CC
DE
DE
F6
F6
E6
E6
7C
7C
ENDCHAR
STARTCHAR char49
ENCODING 49
SWIDTH 44 0
DWIDTH 8 0
BBX 6 14 1 -1
BITMAP
30
30
30
30
70
70
30
30
30
30
30
30
FC
FC
ENDCHAR
STARTCHAR char50
ENCODING 50
SWIDTH 44 0
DWIDTH 8 0
BBX 7 14 0 -1
BITMAP
7C
7C
06
06
3C
3C
60
60
C0
C0
C0
C0
FE
FE
ENDCHAR
STARTCHAR char51
ENCODING 51
SWIDTH 44 0
DWIDTH 8 0
BBX 7 14 0 -1
BITMAP
3C
3C
06
06
1C
1C
06
06
46
46
C6
C6
7C
7C
ENDCHAR
STARTCHAR char52
ENCODING 52
SWIDTH 44 0
DWIDTH 8 0
BBX 7 14 0 -1
BITMAP
18
18
18
18
30
30
6C
6C
CC
CC
FE
FE
0C
0C
ENDCHAR
STARTCHAR char53
ENCODING 53
SWIDTH 44 0
DWIDTH 8 0
BBX 7 14 0 -1
BITMAP
F8
F8
C0
C0
FC
FC
06
06
46
46
CC
CC
78
78
ENDCHAR
STARTCHAR char54
ENCODING 54
SWIDTH 44 0
DWIDTH 8 0
BBX 7 14 0 -1
BITMAP
70
70
C0
C0
FC
FC
C6
C6
C6
C6
CC
CC
78
78
ENDCHAR
STARTCHAR char55
ENCODING 55
SWIDTH 44 0
DWIDTH 8 0
BBX 7 14 0 -1
BITMAP
FE
FE
06
06
0C
0C
18
18
18
18
18
18
18
18
ENDCHAR
STARTCHAR char56
ENCODING 56
SWIDTH 44 0
DWIDTH 8 0
BBX 7 14 0 -1
BITMAP
78
78
CC
CC
7C
7C
C6
C6
C6
C6
CC
CC
78
78
ENDCHAR
STARTCHAR char57
ENCODING 57
SWIDTH 44 0
DWIDTH 8 0
BBX 7 14 0 -1
BITMAP
78
78
CC
CC
C6
C6
C6
C6
7E
7E
06
06
1C
1C
ENDCHAR
STARTCHAR char58
ENCODING 58
SWIDTH 44 0
DWIDTH 8 0
BBX 2 10 3 -1
BITMAP
C0
C0
C0
C0
00
00
C0
C0
C0
C0
ENDCHAR
STARTCHAR char59
ENCODING 59
SWIDTH 44 0
DWIDTH 8 0
BBX 3 12 2 -3
BITMAP
60
60
60
60
00
00
60
60
60
60
C0
C0
ENDCHAR
STARTCHAR char60
ENCODING 60
SWIDTH 44 0
DWIDTH 8 0
BBX 5 14 3 -1
BITMAP
18
18
30
30
60
60
C0
C0
60
60
30
30
18
18
ENDCHAR
STARTCHAR char61
ENCODING 61
SWIDTH 44 0
DWIDTH 8 0
BBX 6 8 1 1
BITMAP
FC
FC
00
00
00
00
FC
FC
ENDCHAR
STARTCHAR char62
ENCODING 62
SWIDTH 44 0
DWIDTH 8 0
BBX 5 14 0 -1
BITMAP
C0
C0
60
60
30
30
18
18
30
30
60
60
C0
C0
ENDCHAR
STARTCHAR char63
ENCODING 63
SWIDTH 44 0
DWIDTH 8 0
BBX 7 14 0 -1
BITMAP
7C
7C
C6
C6
06
06
3C
3C
30
30
00
00
30
30
ENDCHAR
STARTCHAR char64
ENCODING 64
SWIDTH 44 0
DWIDTH 8 0
BBX 7 14 0 -1
BITMAP
7C
7C
C6
C6
DE
DE
D6
D6
DE
DE
C0
C0
7E
7E
ENDCHAR
STARTCHAR char65
ENCODING 65
SWIDTH 44 0
DWIDTH 8 0
BBX 7 14 0 -1
BITMAP
78
78
CC
CC
C6
C6
FE
FE
C6
C6
C6
C6
C6
C6
ENDCHAR
STARTCHAR char66
ENCODING 66
SWIDTH 44 0
DWIDTH 8 0
BBX 7 14 0 -1
BITMAP
F8
F8
CC
CC
FC
FC
C6
C6
C6
C6
CC
CC
F8
F8
ENDCHAR
STARTCHAR char67
ENCODING 67
SWIDTH 44 0
DWIDTH 8 0
BBX 7 14 0 -1
BITMAP
78
78
CC
CC
C0
C0
C0
C0
C0
C0
C6
C6
7C
7C
ENDCHAR
STARTCHAR char68
ENCODING 68
SWIDTH 44 0
DWIDTH 8 0
BBX 7 14 0 -1
BITMAP
F8
F8
CC
CC
C6
C6
C6
C6
C6
C6
C6
C6
FC
FC
ENDCHAR
STARTCHAR char69
ENCODING 69
SWIDTH 44 0
DWIDTH 8 0
BBX 7 14 0 -1
BITMAP
FE
FE
C0
C0
FC
FC
C0
C0
C0
C0
C0
C0
FE
FE
ENDCHAR
STARTCHAR char70
ENCODING 70
SWIDTH 44 0
DWIDTH 8 0
BBX 7 14 0 -1
BITMAP
FE
FE
C0
C0
FC
FC
C0
C0
C0
C0
C0
C0
C0
C0
ENDCHAR
STARTCHAR char71
ENCODING 71
SWIDTH 44 0
DWIDTH 8 0
BBX 8 16 0 -3
BITMAP
38
38
60
60
C0
C0
CE
CE
C6
C6
C6
C6
7E
7E
06
06
ENDCHAR
STARTCHAR char72
ENCODING 72
SWIDTH 44 0
DWIDTH 8 0
BBX 7 14 0 -1
BITMAP
C6
C6
C6
C6
C6
C6
FE
FE
C6
C6
C6
C6
C6
C6
ENDCHAR
STARTCHAR char73
ENCODING 73
SWIDTH 44 0
DWIDTH 8 0
BBX 6 14 1 -1
BITMAP
FC
FC
30
30
30
30
30
30
30
30
30
30
FC
FC
ENDCHAR
STARTCHAR char74
ENCODING 74
SWIDTH 44 0
DWIDTH 8 0
BBX 7 14 0 -1
BITMAP
0E
0E
06
06
06
06
06
06
C6
C6
C6
C6
7C
7C
ENDCHAR
STARTCHAR char75
ENCODING 75
SWIDTH 44 0
DWIDTH 8 0
BBX 7 14 0 -1
BITMAP
C6
C6
CC
CC
D8
D8
F0
F0
D8
D8
CC
CC
C6
C6
ENDCHAR
STARTCHAR char76
ENCODING 76
SWIDTH 44 0
DWIDTH 8 0
BBX 7 14 0 -1
BITMAP
C0
C0
C0
C0
C0
C0
C0
C0
C0
C0
C0
C0
FE
FE
ENDCHAR
STARTCHAR char77
ENCODING 77
SWIDTH 44 0
DWIDTH 8 0
BBX 7 14 0 -1
BITMAP
C6
C6
EE
EE
FE
FE
D6
D6
C6
C6
C6
C6
C6
C6
ENDCHAR
STARTCHAR char78
ENCODING 78
SWIDTH 44 0
DWIDTH 8 0
BBX 7 14 0 -1
BITMAP
C6
C6
E6
E6
F6
F6
DE
DE
CE
CE
C6
C6
C6
C6
ENDCHAR
STARTCHAR char79
ENCODING 79
SWIDTH 44 0
DWIDTH 8 0
BBX 7 14 0 -1
BITMAP
78
78
CC
CC
C6
C6
C6
C6
C6
C6
C6
C6
7C
7C
ENDCHAR
STARTCHAR char80
ENCODING 80
SWIDTH 44 0
DWIDTH 8 0
BBX 7 14 0 -1
BITMAP
F8
F8
CC
CC
C6
C6
C6
C6
FC
FC
C0
C0
C0
C0
ENDCHAR
STARTCHAR char81
ENCODING 81
SWIDTH 44 0
DWIDTH 8 0
BBX 8 16 0 -3
BITMAP
78
78
CC
CC
C6
C6
C6
C6
C6
C6
D6
D6
7C
7C
0C
0C
ENDCHAR
STARTCHAR char82
ENCODING 82
SWIDTH 44 0
DWIDTH 8 0
BBX 8 16 0 -3
BITMAP
F8
F8
CC
CC
C6
C6
C6
C6
FC
FC
D8
D8
CC
CC
06
06
ENDCHAR
STARTCHAR char83
ENCODING 83
SWIDTH 44 0
DWIDTH 8 0
BBX 7 14 0 -1
BITMAP
78
78
C0
C0
7C
7C
06
06
46
46
C6
C6
7C
7C
ENDCHAR
STARTCHAR char84
ENCODING 84
SWIDTH 44 0
DWIDTH 8 0
BBX 6 14 1 -1
BITMAP
FC
FC
30
30
30
30
30
30
30
30
30
30
30
30
ENDCHAR
STARTCHAR char85
ENCODING 85
SWIDTH 44 0
DWIDTH 8 0
BBX 7 14 0 -1
BITMAP
C6
C6
C6
C6
C6
C6
C6
C6
C6
C6
C6
C6
7C
7C
ENDCHAR
STARTCHAR char86
ENCODING 86
SWIDTH 44 0
DWIDTH 8 0
BBX 7 14 0 -1
BITMAP
C6
C6
C6
C6
C6
C6
6C
6C
6C
6C
38
38
38
38
ENDCHAR
STARTCHAR char87
ENCODING 87
SWIDTH 44 0
DWIDTH 8 0
BBX 7 14 0 -1
BITMAP
C6
C6
C6
C6
C6
C6
D6
D6
FE
FE
EE
EE
C6
C6
ENDCHAR
STARTCHAR char88
ENCODING 88
SWIDTH 44 0
DWIDTH 8 0
BBX 7 14 0 -1
BITMAP
C6
C6
6C
6C
38
38
38
38
6C
6C
C6
C6
C6
C6
ENDCHAR
STARTCHAR char89
ENCODING 89
SWIDTH 44 0
DWIDTH 8 0
BBX 7 14 0 -1
BITMAP
C6
C6
C6
C6
C6
C6
7C
7C
0C
0C
0C
0C
0C
0C
ENDCHAR
STARTCHAR char90
ENCODING 90
SWIDTH 44 0
DWIDTH 8 0
BBX 7 14 0 -1
BITMAP
FE
FE
0C
0C
18
18
30
30
60
60
C0
C0
FE
FE
ENDCHAR
STARTCHAR char91
ENCODING 91
SWIDTH 44 0
DWIDTH 8 0
BBX 6 14 2 -1
BITMAP
F0
FC
C0
C0
C0
C0
C0
C0
C0
C0
C0
C0
FC
F0
ENDCHAR
STARTCHAR char92
ENCODING 92
SWIDTH 44 0
DWIDTH 8 0
BBX 8 16 0 -3
BITMAP
C0
C0
60
60
30
30
18
18
0C
0C
06
06
03
03
01
01
ENDCHAR
STARTCHAR char93
ENCODING 93
SWIDTH 44 0
DWIDTH 8 0
BBX 6 14 0 -1
BITMAP
3C
FC
0C
0C
0C
0C
0C
0C
0C
0C
0C
0C
FC
3C
ENDCHAR
STARTCHAR char94
ENCODING 94
SWIDTH 44 0
DWIDTH 8 0
BBX 5 6 1 7
BITMAP
20
20
70
70
D8
D8
ENDCHAR
STARTCHAR char95
ENCODING 95
SWIDTH 44 0
DWIDTH 8 0
BBX 8 2 0 -3
BITMAP
FF
FF
ENDCHAR
STARTCHAR char96
ENCODING 96
SWIDTH 44 0
DWIDTH 8 0
BBX 3 6 3 7
BITMAP
C0
C0
C0
C0
60
60
ENDCHAR
STARTCHAR char97
ENCODING 97
SWIDTH 44 0
DWIDTH 8 0
BBX 7 12 0 -1
BITMAP
3C
3C
06
06
7E
7E
C6
C6
C6
C6
7E
7E
ENDCHAR
STARTCHAR char98
ENCODING 98
SWIDTH 44 0
DWIDTH 8 0
BBX 7 14 0 -1
BITMAP
C0
C0
F8
F8
CC
CC
C6
C6
C6
C6
C6
C6
FC
FC
ENDCHAR
STARTCHAR char99
ENCODING 99
SWIDTH 44 0
DWIDTH 8 0
BBX 7 12 0 -1
BITMAP
78
78
CC
CC
C0
C0
C0
C0
C6
C6
7C
7C
ENDCHAR
STARTCHAR char100
ENCODING 100
SWIDTH 44 0
DWIDTH 8 0
BBX 7 14 0 -1
BITMAP
06
06
3E
3E
66
66
C6
C6
C6
C6
C6
C6
7E
7E
ENDCHAR
STARTCHAR char101
ENCODING 101
SWIDTH 44 0
DWIDTH 8 0
BBX 7 12 0 -1
BITMAP
78
78
CC
CC
FC
FC
C0
C0
C6
C6
7C
7C
ENDCHAR
STARTCHAR char102
ENCODING 102
SWIDTH 44 0
DWIDTH 8 0
BBX 8 16 0 -3
BITMAP
38
38
6C
6C
60
60
78
78
60
60
60
60
60
60
60
60
ENDCHAR
STARTCHAR char103
ENCODING 103
SWIDTH 44 0
DWIDTH 8 0
BBX 7 14 0 -3
BITMAP
7E
7E
C6
C6
C6
C6
C6
C6
7E
7E
06
06
7C
7C
ENDCHAR
STARTCHAR char104
ENCODING 104
SWIDTH 44 0
DWIDTH 8 0
BBX 7 14 0 -1
BITMAP
C0
C0
F8
F8
CC
CC
C6
C6
C6
C6
C6
C6
C6
C6
ENDCHAR
STARTCHAR char105
ENCODING 105
SWIDTH 44 0
DWIDTH 8 0
BBX 6 14 1 -1
BITMAP
30
30
00
00
70
70
30
30
30
30
30
30
FC
FC
ENDCHAR
STARTCHAR char106
ENCODING 106
SWIDTH 44 0
DWIDTH 8 0
BBX 8 16 0 -3
BITMAP
0C
0C
00
00
1C
1C
0C
0C
0C
0C
0C
0C
4C
4C
38
38
ENDCHAR
STARTCHAR char107
ENCODING 107
SWIDTH 44 0
DWIDTH 8 0
BBX 7 14 0 -1
BITMAP
C0
C0
CC
CC
D8
D8
F0
F0
D8
D8
CC
CC
C6
C6
ENDCHAR
STARTCHAR char108
ENCODING 108
SWIDTH 44 0
DWIDTH 8 0
BBX 6 14 1 -1
BITMAP
70
70
30
30
30
30
30
30
30
30
30
30
FC
FC
ENDCHAR
STARTCHAR char109
ENCODING 109
SWIDTH 44 0
DWIDTH 8 0
BBX 7 12 0 -1
BITMAP
C4
C4
EE
EE
FE
FE
D6
D6
C6
C6
C6
C6
ENDCHAR
STARTCHAR char110
ENCODING 110
SWIDTH 44 0
DWIDTH 8 0
BBX 7 12 0 -1
BITMAP
F8
F8
CC
CC
C6
C6
C6
C6
C6
C6
C6
C6
ENDCHAR
STARTCHAR char111
ENCODING 111
SWIDTH 44 0
DWIDTH 8 0
BBX 7 12 0 -1
BITMAP
78
78
CC
CC
C6
C6
C6
C6
C6
C6
7C
7C
ENDCHAR
STARTCHAR char112
ENCODING 112
SWIDTH 44 0
DWIDTH 8 0
BBX 7 14 0 -3
BITMAP
F8
F8
CC
CC
C6
C6
C6
C6
C6
C6
FC
FC
C0
C0
ENDCHAR
STARTCHAR char113
ENCODING 113
SWIDTH 44 0
DWIDTH 8 0
BBX 7 14 0 -3
BITMAP
3E
3E
66
66
C6
C6
C6
C6
C6
C6
7E
7E
06
06
ENDCHAR
STARTCHAR char114
ENCODING 114
SWIDTH 44 0
DWIDTH 8 0
BBX 7 12 0 -1
BITMAP
FC
FC
C6
C6
C0
C0
C0
C0
C0
C0
C0
C0
ENDCHAR
STARTCHAR char115
ENCODING 115
SWIDTH 44 0
DWIDTH 8 0
BBX 7 12 0 -1
BITMAP
78
78
C0
C0
7C
7C
06
06
C6
C6
7C
7C
ENDCHAR
STARTCHAR char116
ENCODING 116
SWIDTH 44 0
DWIDTH 8 0
BBX 6 14 1 -1
BITMAP
60
60
F8
F8
60
60
60
60
60
60
64
64
38
38
ENDCHAR
STARTCHAR char117
ENCODING 117
SWIDTH 44 0
DWIDTH 8 0
BBX 7 12 0 -1
BITMAP
C6
C6
C6
C6
C6
C6
C6
C6
C6
C6
7E
7E
ENDCHAR
STARTCHAR char118
ENCODING 118
SWIDTH 44 0
DWIDTH 8 0
BBX 7 12 0 -1
BITMAP
C6
C6
C6
C6
6C
6C
6C
6C
38
38
38
38
ENDCHAR
STARTCHAR char119
ENCODING 119
SWIDTH 44 0
DWIDTH 8 0
BBX 7 12 0 -1
BITMAP
C6
C6
D6
D6
FE
FE
7C
7C
6C
6C
44
44
ENDCHAR
STARTCHAR char120
ENCODING 120
SWIDTH 44 0
DWIDTH 8 0
BBX 7 12 0 -1
BITMAP
C6
C6
6C
6C
38
38
38
38
6C
6C
C6
C6
ENDCHAR
STARTCHAR char121
ENCODING 121
SWIDTH 44 0
DWIDTH 8 0
BBX 7 14 0 -3
BITMAP
C6
C6
C6
C6
C6
C6
C6
C6
7E
7E
06
06
7C
7C
ENDCHAR
STARTCHAR char122
ENCODING 122
SWIDTH 44 0
DWIDTH 8 0
BBX 7 12 0 -1
BITMAP
FE
FE
0C
0C
18
18
30
30
60
60
FE
FE
ENDCHAR
STARTCHAR char123
ENCODING 123
SWIDTH 44 0
DWIDTH 8 0
BBX 7 14 1 -1
BITMAP
1C
1E
32
30
30
30
E0
E0
30
30
30
32
1E
1C
ENDCHAR
STARTCHAR char124
ENCODING 124
SWIDTH 44 0
DWIDTH 8 0
BBX 8 16 0 -3
BITMAP
18
18
18
18
18
18
18
18
18
18
18
18
18
18
18
18
ENDCHAR
STARTCHAR char125
ENCODING 125
SWIDTH 44 0
DWIDTH 8 0
BBX 7 14 0 -1
BITMAP
70
F0
98
18
18
18
0E
0E
18
18
18
98
F0
70
ENDCHAR
STARTCHAR char126
ENCODING 126
SWIDTH 44 0
DWIDTH 8 0
BBX 7 4 0 9
BITMAP
72
72
9C
9C
ENDCHAR
STARTCHAR char127
ENCODING 127
SWIDTH 44 0
DWIDTH 8 0
BBX 8 16 0 -3
BITMAP
38
38
70
70
E0
E0
C1
C1
83
83
07
07
0E
0E
1C
1C
ENDCHAR
STARTCHAR char128
ENCODING 128
SWIDTH 44 0
DWIDTH 8 0
BBX 8 16 0 -3
BITMAP
CF
CF
F7
F7
87
87
33
33
01
01
39
39
39
39
FF
FF
ENDCHAR
STARTCHAR char129
ENCODING 129
SWIDTH 44 0
DWIDTH 8 0
BBX 8 16 0 -3
BITMAP
E7
E7
DF
DF
87
87
33
33
01
01
39
39
39
39
FF
FF
ENDCHAR
STARTCHAR char130
ENCODING 130
SWIDTH 44 0
DWIDTH 8 0
BBX 8 16 0 -3
BITMAP
CF
CF
33
33
87
87
33
33
01
01
39
39
39
39
FF
FF
ENDCHAR
STARTCHAR char131
ENCODING 131
SWIDTH 44 0
DWIDTH 8 0
BBX 8 16 0 -3
BITMAP
8D
8D
63
63
87
87
33
33
01
01
39
39
39
39
FF
FF
ENDCHAR
STARTCHAR char132
ENCODING 132
SWIDTH 44 0
DWIDTH 8 0
BBX 8 16 0 -3
BITMAP
93
93
FF
FF
87
87
33
33
01
01
39
39
39
39
FF
FF
ENDCHAR
STARTCHAR char133
ENCODING 133
SWIDTH 44 0
DWIDTH 8 0
BBX 8 16 0 -3
BITMAP
87
87
33
33
87
87
33
33
01
01
39
39
39
39
FF
FF
ENDCHAR
STARTCHAR char134
ENCODING 134
SWIDTH 44 0
DWIDTH 8 0
BBX 8 16 0 -3
BITMAP
C0
C0
93
93
30
30
03
03
33
33
33
33
30
30
FF
FF
ENDCHAR
STARTCHAR char135
ENCODING 135
SWIDTH 44 0
DWIDTH 8 0
BBX 8 16 0 -3
BITMAP
87
87
33
33
3F
3F
3F
3F
3F
3F
33
33
87
87
CF
CF
ENDCHAR
STARTCHAR char136
ENCODING 136
SWIDTH 44 0
DWIDTH 8 0
BBX 8 16 0 -3
BITMAP
CF
CF
F7
F7
01
01
3F
3F
03
03
3F
3F
01
01
FF
FF
ENDCHAR
STARTCHAR char137
ENCODING 137
SWIDTH 44 0
DWIDTH 8 0
BBX 8 16 0 -3
BITMAP
E7
E7
DF
DF
01
01
3F
3F
03
03
3F
3F
01
01
FF
FF
ENDCHAR
STARTCHAR char138
ENCODING 138
SWIDTH 44 0
DWIDTH 8 0
BBX 8 16 0 -3
BITMAP
E7
E7
99
99
01
01
3F
3F
03
03
3F
3F
01
01
FF
FF
ENDCHAR
STARTCHAR char139
ENCODING 139
SWIDTH 44 0
DWIDTH 8 0
BBX 8 16 0 -3
BITMAP
93
93
FF
FF
01
01
3F
3F
03
03
3F
3F
01
01
FF
FF
ENDCHAR
STARTCHAR char140
ENCODING 140
SWIDTH 44 0
DWIDTH 8 0
BBX 8 16 0 -3
BITMAP
CF
CF
F7
F7
81
81
E7
E7
E7
E7
E7
E7
81
81
FF
FF
ENDCHAR
STARTCHAR char141
ENCODING 141
SWIDTH 44 0
DWIDTH 8 0
BBX 8 16 0 -3
BITMAP
E7
E7
DF
DF
81
81
E7
E7
E7
E7
E7
E7
81
81
FF
FF
ENDCHAR
STARTCHAR char142
ENCODING 142
SWIDTH 44 0
DWIDTH 8 0
BBX 8 16 0 -3
BITMAP
E7
E7
99
99
81
81
E7
E7
E7
E7
E7
E7
81
81
FF
FF
ENDCHAR
STARTCHAR char143
ENCODING 143
SWIDTH 44 0
DWIDTH 8 0
BBX 8 16 0 -3
BITMAP
93
93
FF
FF
81
81
E7
E7
E7
E7
E7
E7
81
81
FF
FF
ENDCHAR
STARTCHAR char144
ENCODING 144
SWIDTH 44 0
DWIDTH 8 0
BBX 8 16 0 -3
BITMAP
07
07
33
33
39
39
19
19
39
39
39
39
03
03
FF
FF
ENDCHAR
STARTCHAR char145
ENCODING 145
SWIDTH 44 0
DWIDTH 8 0
BBX 8 16 0 -3
BITMAP
8D
8D
63
63
19
19
09
09
21
21
31
31
39
39
FF
FF
ENDCHAR
STARTCHAR char146
ENCODING 146
SWIDTH 44 0
DWIDTH 8 0
BBX 8 16 0 -3
BITMAP
CF
CF
F7
F7
87
87
33
33
39
39
39
39
83
83
FF
FF
ENDCHAR
STARTCHAR char147
ENCODING 147
SWIDTH 44 0
DWIDTH 8 0
BBX 8 16 0 -3
BITMAP
E7
E7
DF
DF
87
87
33
33
39
39
39
39
83
83
FF
FF
ENDCHAR
STARTCHAR char148
ENCODING 148
SWIDTH 44 0
DWIDTH 8 0
BBX 8 16 0 -3
BITMAP
CF
CF
33
33
87
87
33
33
39
39
39
39
83
83
FF
FF
ENDCHAR
STARTCHAR char149
ENCODING 149
SWIDTH 44 0
DWIDTH 8 0
BBX 8 16 0 -3
BITMAP
8D
8D
63
63
87
87
33
33
39
39
39
39
83
83
FF
FF
ENDCHAR
STARTCHAR char150
ENCODING 150
SWIDTH 44 0
DWIDTH 8 0
BBX 8 16 0 -3
BITMAP
93
93
FF
FF
87
87
33
33
39
39
39
39
83
83
FF
FF
ENDCHAR
STARTCHAR char151
ENCODING 151
SWIDTH 44 0
DWIDTH 8 0
BBX 8 16 0 -3
BITMAP
FF
FF
83
83
29
29
00
00
24
24
38
38
81
81
FF
FF
ENDCHAR
STARTCHAR char152
ENCODING 152
SWIDTH 44 0
DWIDTH 8 0
BBX 8 16 0 -3
BITMAP
87
87
33
33
21
21
09
09
19
19
39
39
83
83
FF
FF
ENDCHAR
STARTCHAR char153
ENCODING 153
SWIDTH 44 0
DWIDTH 8 0
BBX 8 16 0 -3
BITMAP
CF
CF
F7
F7
39
39
39
39
39
39
39
39
83
83
FF
FF
ENDCHAR
STARTCHAR char154
ENCODING 154
SWIDTH 44 0
DWIDTH 8 0
BBX 8 16 0 -3
BITMAP
E7
E7
DF
DF
39
39
39
39
39
39
39
39
83
83
FF
FF
ENDCHAR
STARTCHAR char155
ENCODING 155
SWIDTH 44 0
DWIDTH 8 0
BBX 8 16 0 -3
BITMAP
E7
E7
99
99
39
39
39
39
39
39
39
39
83
83
FF
FF
ENDCHAR
STARTCHAR char156
ENCODING 156
SWIDTH 44 0
DWIDTH 8 0
BBX 8 16 0 -3
BITMAP
93
93
FF
FF
39
39
39
39
39
39
39
39
83
83
FF
FF
ENDCHAR
STARTCHAR char157
ENCODING 157
SWIDTH 44 0
DWIDTH 8 0
BBX 8 16 0 -3
BITMAP
E7
E7
DF
DF
39
39
39
39
83
83
F3
F3
F3
F3
FF
FF
ENDCHAR
STARTCHAR char158
ENCODING 158
SWIDTH 44 0
DWIDTH 8 0
BBX 8 16 0 -3
BITMAP
3F
3F
07
07
33
33
39
39
03
03
3F
3F
3F
3F
3F
3F
ENDCHAR
STARTCHAR char159
ENCODING 159
SWIDTH 44 0
DWIDTH 8 0
BBX 8 16 0 -3
BITMAP
FF
FF
87
87
33
33
23
23
39
39
39
39
23
23
3F
3F
ENDCHAR
STARTCHAR char160
ENCODING 160
SWIDTH 44 0
DWIDTH 8 0
BBX 0 0 0 0
BITMAP
ENDCHAR
STARTCHAR char161
ENCODING 161
SWIDTH 44 0
DWIDTH 8 0
BBX 2 14 3 -1
BITMAP
C0
C0
00
00
C0
C0
C0
C0
C0
C0
C0
C0
C0
C0
ENDCHAR
STARTCHAR char162
ENCODING 162
SWIDTH 44 0
DWIDTH 8 0
BBX 8 16 0 -3
BITMAP
30
30
78
78
CC
CC
C0
C0
C0
C0
C6
C6
7C
7C
30
30
ENDCHAR
STARTCHAR char163
ENCODING 163
SWIDTH 44 0
DWIDTH 8 0
BBX 7 14 0 -1
BITMAP
38
38
6C
6C
60
60
F8
F8
60
60
60
60
FE
FE
ENDCHAR
STARTCHAR char164
ENCODING 164
SWIDTH 44 0
DWIDTH 8 0
BBX 7 12 0 -1
BITMAP
C6
C6
7C
7C
C6
C6
C6
C6
7C
7C
C6
C6
ENDCHAR
STARTCHAR char165
ENCODING 165
SWIDTH 44 0
DWIDTH 8 0
BBX 7 14 0 -1
BITMAP
C6
C6
C6
C6
C6
C6
7C
7C
0C
0C
3E
3E
0C
0C
ENDCHAR
STARTCHAR char166
ENCODING 166
SWIDTH 44 0
DWIDTH 8 0
BBX 8 16 0 -3
BITMAP
18
18
18
18
18
18
18
00
00
18
18
18
18
18
18
18
ENDCHAR
STARTCHAR char167
ENCODING 167
SWIDTH 44 0
DWIDTH 8 0
BBX 8 16 0 -3
BITMAP
78
78
C0
C0
7C
7C
C6
C6
C6
C6
7C
7C
06
06
3C
3C
ENDCHAR
STARTCHAR char168
ENCODING 168
SWIDTH 44 0
DWIDTH 8 0
BBX 5 2 1 11
BITMAP
D8
D8
ENDCHAR
STARTCHAR char169
ENCODING 169
SWIDTH 44 0
DWIDTH 8 0
BBX 8 16 0 -3
BITMAP
3C
3C
42
42
99
99
A1
A1
A1
A1
99
99
42
42
3C
3C
ENDCHAR
STARTCHAR char170
ENCODING 170
SWIDTH 44 0
DWIDTH 8 0
BBX 7 12 0 -1
BITMAP
7E
7E
C6
C6
C6
C6
7E
7E
00
00
7C
7C
ENDCHAR
STARTCHAR char171
ENCODING 171
SWIDTH 44 0
DWIDTH 8 0
BBX 7 10 0 1
BITMAP
36
36
6C
6C
D8
D8
6C
6C
36
36
ENDCHAR
STARTCHAR char172
ENCODING 172
SWIDTH 44 0
DWIDTH 8 0
BBX 8 4 0 9
BITMAP
FE
7F
03
03
ENDCHAR
STARTCHAR char173
ENCODING 173
SWIDTH 44 0
DWIDTH 8 0
BBX 6 2 1 5
BITMAP
FC
FC
ENDCHAR
STARTCHAR char174
ENCODING 174
SWIDTH 44 0
DWIDTH 8 0
BBX 8 16 0 -3
BITMAP
3C
3C
42
42
B9
B9
A5
A5
B9
B9
A5
A5
42
42
3C
3C
ENDCHAR
STARTCHAR char175
ENCODING 175
SWIDTH 44 0
DWIDTH 8 0
BBX 8 2 0 11
BITMAP
FF
FF
ENDCHAR
STARTCHAR char176
ENCODING 176
SWIDTH 44 0
DWIDTH 8 0
BBX 6 8 1 5
BITMAP
78
78
CC
CC
CC
CC
78
78
ENDCHAR
STARTCHAR char177
ENCODING 177
SWIDTH 44 0
DWIDTH 8 0
BBX 5 10 1 1
BITMAP
20
20
F8
F8
20
20
00
00
F8
F8
ENDCHAR
STARTCHAR char178
ENCODING 178
SWIDTH 44 0
DWIDTH 8 0
BBX 4 10 1 3
BITMAP
E0
E0
30
30
60
60
C0
C0
F0
F0
ENDCHAR
STARTCHAR char179
ENCODING 179
SWIDTH 44 0
DWIDTH 8 0
BBX 4 10 1 3
BITMAP
E0
E0
30
30
60
60
30
30
E0
E0
ENDCHAR
STARTCHAR char180
ENCODING 180
SWIDTH 44 0
DWIDTH 8 0
BBX 4 6 1 7
BITMAP
30
30
60
60
C0
C0
ENDCHAR
STARTCHAR char181
ENCODING 181
SWIDTH 44 0
DWIDTH 8 0
BBX 7 14 0 -3
BITMAP
C6
C6
C6
C6
C6
C6
C6
C6
C6
C6
FC
FC
C0
C0
ENDCHAR
STARTCHAR char182
ENCODING 182
SWIDTH 44 0
DWIDTH 8 0
BBX 7 12 0 -1
BITMAP
7E
7E
F4
F4
74
74
14
14
14
14
14
14
ENDCHAR
STARTCHAR char183
ENCODING 183
SWIDTH 44 0
DWIDTH 8 0
BBX 2 4 3 5
BITMAP
C0
C0
C0
C0
ENDCHAR
STARTCHAR char184
ENCODING 184
SWIDTH 44 0
DWIDTH 8 0
BBX 3 4 2 -3
BITMAP
60
60
C0
C0
ENDCHAR
STARTCHAR char185
ENCODING 185
SWIDTH 44 0
DWIDTH 8 0
BBX 4 10 1 3
BITMAP
60
60
E0
E0
60
60
60
60
F0
F0
ENDCHAR
STARTCHAR char186
ENCODING 186
SWIDTH 44 0
DWIDTH 8 0
BBX 7 12 0 -1
BITMAP
7C
7C
C6
C6
C6
C6
7C
7C
00
00
7C
7C
ENDCHAR
STARTCHAR char187
ENCODING 187
SWIDTH 44 0
DWIDTH 8 0
BBX 7 10 0 1
BITMAP
D8
D8
6C
6C
36
36
6C
6C
D8
D8
ENDCHAR
STARTCHAR char188
ENCODING 188
SWIDTH 44 0
DWIDTH 8 0
BBX 8 16 0 -3
BITMAP
63
63
E6
E6
6C
6C
7B
7B
37
35
6D
6F
C3
C3
80
80
ENDCHAR
STARTCHAR char189
ENCODING 189
SWIDTH 44 0
DWIDTH 8 0
BBX 8 16 0 -3
BITMAP
63
63
E6
E6
6C
6C
7E
7F
33
36
66
6F
CF
C0
80
80
ENDCHAR
STARTCHAR char190
ENCODING 190
SWIDTH 44 0
DWIDTH 8 0
BBX 8 14 0 -1
BITMAP
C0
C0
66
C6
6C
6C
DB
DB
37
35
6D
6F
C3
C3
ENDCHAR
STARTCHAR char191
ENCODING 191
SWIDTH 44 0
DWIDTH 8 0
BBX 7 14 0 -1
BITMAP
30
30
00
00
30
30
3C
3C
06
06
C6
C6
7C
7C
ENDCHAR
STARTCHAR char192
ENCODING 192
SWIDTH 44 0
DWIDTH 8 0
BBX 7 14 0 -1
BITMAP
30
30
08
08
78
78
CC
CC
FE
FE
C6
C6
C6
C6
ENDCHAR
STARTCHAR char193
ENCODING 193
SWIDTH 44 0
DWIDTH 8 0
BBX 7 14 0 -1
BITMAP
18
18
20
20
78
78
CC
CC
FE
FE
C6
C6
C6
C6
ENDCHAR
STARTCHAR char194
ENCODING 194
SWIDTH 44 0
DWIDTH 8 0
BBX 7 14 0 -1
BITMAP
30
30
CC
CC
78
78
CC
CC
FE
FE
C6
C6
C6
C6
ENDCHAR
STARTCHAR char195
ENCODING 195
SWIDTH 44 0
DWIDTH 8 0
BBX 7 14 0 -1
BITMAP
72
72
9C
9C
78
78
CC
CC
FE
FE
C6
C6
C6
C6
ENDCHAR
STARTCHAR char196
ENCODING 196
SWIDTH 44 0
DWIDTH 8 0
BBX 7 14 0 -1
BITMAP
6C
6C
00
00
78
78
CC
CC
FE
FE
C6
C6
C6
C6
ENDCHAR
STARTCHAR char197
ENCODING 197
SWIDTH 44 0
DWIDTH 8 0
BBX 7 14 0 -1
BITMAP
78
78
CC
CC
78
78
CC
CC
FE
FE
C6
C6
C6
C6
ENDCHAR
STARTCHAR char198
ENCODING 198
SWIDTH 44 0
DWIDTH 8 0
BBX 8 14 0 -1
BITMAP
3F
3F
6C
6C
CF
CF
FC
FC
CC
CC
CC
CC
CF
CF
ENDCHAR
STARTCHAR char199
ENCODING 199
SWIDTH 44 0
DWIDTH 8 0
BBX 8 16 0 -3
BITMAP
78
78
CC
CC
C0
C0
C0
C0
C0
C0
C6
C6
7C
7C
30
30
ENDCHAR
STARTCHAR char200
ENCODING 200
SWIDTH 44 0
DWIDTH 8 0
BBX 7 14 0 -1
BITMAP
30
30
08
08
FE
FE
C0
C0
FC
FC
C0
C0
FE
FE
ENDCHAR
STARTCHAR char201
ENCODING 201
SWIDTH 44 0
DWIDTH 8 0
BBX 7 14 0 -1
BITMAP
18
18
20
20
FE
FE
C0
C0
FC
FC
C0
C0
FE
FE
ENDCHAR
STARTCHAR char202
ENCODING 202
SWIDTH 44 0
DWIDTH 8 0
BBX 7 14 0 -1
BITMAP
18
18
66
66
FE
FE
C0
C0
FC
FC
C0
C0
FE
FE
ENDCHAR
STARTCHAR char203
ENCODING 203
SWIDTH 44 0
DWIDTH 8 0
BBX 7 14 0 -1
BITMAP
6C
6C
00
00
FE
FE
C0
C0
FC
FC
C0
C0
FE
FE
ENDCHAR
STARTCHAR char204
ENCODING 204
SWIDTH 44 0
DWIDTH 8 0
BBX 6 14 1 -1
BITMAP
60
60
10
10
FC
FC
30
30
30
30
30
30
FC
FC
ENDCHAR
STARTCHAR char205
ENCODING 205
SWIDTH 44 0
DWIDTH 8 0
BBX 6 14 1 -1
BITMAP
30
30
40
40
FC
FC
30
30
30
30
30
30
FC
FC
ENDCHAR
STARTCHAR char206
ENCODING 206
SWIDTH 44 0
DWIDTH 8 0
BBX 6 14 1 -1
BITMAP
30
30
CC
CC
FC
FC
30
30
30
30
30
30
FC
FC
ENDCHAR
STARTCHAR char207
ENCODING 207
SWIDTH 44 0
DWIDTH 8 0
BBX 6 14 1 -1
BITMAP
D8
D8
00
00
FC
FC
30
30
30
30
30
30
FC
FC
ENDCHAR
STARTCHAR char208
ENCODING 208
SWIDTH 44 0
DWIDTH 8 0
BBX 7 14 0 -1
BITMAP
F8
F8
CC
CC
C6
C6
E6
E6
C6
C6
C6
C6
FC
FC
ENDCHAR
STARTCHAR char209
ENCODING 209
SWIDTH 44 0
DWIDTH 8 0
BBX 7 14 0 -1
BITMAP
72
72
9C
9C
E6
E6
F6
F6
DE
DE
CE
CE
C6
C6
ENDCHAR
STARTCHAR char210
ENCODING 210
SWIDTH 44 0
DWIDTH 8 0
BBX 7 14 0 -1
BITMAP
30
30
08
08
78
78
CC
CC
C6
C6
C6
C6
7C
7C
ENDCHAR
STARTCHAR char211
ENCODING 211
SWIDTH 44 0
DWIDTH 8 0
BBX 7 14 0 -1
BITMAP
18
18
20
20
78
78
CC
CC
C6
C6
C6
C6
7C
7C
ENDCHAR
STARTCHAR char212
ENCODING 212
SWIDTH 44 0
DWIDTH 8 0
BBX 7 14 0 -1
BITMAP
30
30
CC
CC
78
78
CC
CC
C6
C6
C6
C6
7C
7C
ENDCHAR
STARTCHAR char213
ENCODING 213
SWIDTH 44 0
DWIDTH 8 0
BBX 7 14 0 -1
BITMAP
72
72
9C
9C
78
78
CC
CC
C6
C6
C6
C6
7C
7C
ENDCHAR
STARTCHAR char214
ENCODING 214
SWIDTH 44 0
DWIDTH 8 0
BBX 7 14 0 -1
BITMAP
6C
6C
00
00
78
78
CC
CC
C6
C6
C6
C6
7C
7C
ENDCHAR
STARTCHAR char215
ENCODING 215
SWIDTH 44 0
DWIDTH 8 0
BBX 8 12 0 -1
BITMAP
7C
7C
D6
D6
FF
FF
DB
DB
C7
C7
7E
7E
ENDCHAR
STARTCHAR char216
ENCODING 216
SWIDTH 44 0
DWIDTH 8 0
BBX 7 14 0 -1
BITMAP
78
78
CC
CC
DE
DE
F6
F6
E6
E6
C6
C6
7C
7C
ENDCHAR
STARTCHAR char217
ENCODING 217
SWIDTH 44 0
DWIDTH 8 0
BBX 7 14 0 -1
BITMAP
30
30
08
08
C6
C6
C6
C6
C6
C6
C6
C6
7C
7C
ENDCHAR
STARTCHAR char218
ENCODING 218
SWIDTH 44 0
DWIDTH 8 0
BBX 7 14 0 -1
BITMAP
18
18
20
20
C6
C6
C6
C6
C6
C6
C6
C6
7C
7C
ENDCHAR
STARTCHAR char219
ENCODING 219
SWIDTH 44 0
DWIDTH 8 0
BBX 7 14 0 -1
BITMAP
18
18
66
66
C6
C6
C6
C6
C6
C6
C6
C6
7C
7C
ENDCHAR
STARTCHAR char220
ENCODING 220
SWIDTH 44 0
DWIDTH 8 0
BBX 7 14 0 -1
BITMAP
6C
6C
00
00
C6
C6
C6
C6
C6
C6
C6
C6
7C
7C
ENDCHAR
STARTCHAR char221
ENCODING 221
SWIDTH 44 0
DWIDTH 8 0
BBX 7 14 0 -1
BITMAP
18
18
20
20
C6
C6
C6
C6
7C
7C
0C
0C
0C
0C
ENDCHAR
STARTCHAR char222
ENCODING 222
SWIDTH 44 0
DWIDTH 8 0
BBX 8 16 0 -3
BITMAP
C0
C0
F8
F8
CC
CC
C6
C6
FC
FC
C0
C0
C0
C0
C0
C0
ENDCHAR
STARTCHAR char223
ENCODING 223
SWIDTH 44 0
DWIDTH 8 0
BBX 7 14 0 -3
BITMAP
78
78
CC
CC
DC
DC
C6
C6
C6
C6
DC
DC
C0
C0
ENDCHAR
STARTCHAR char224
ENCODING 224
SWIDTH 44 0
DWIDTH 8 0
BBX 7 14 0 -1
BITMAP
30
30
08
08
3C
3C
06
06
7E
7E
C6
C6
7E
7E
ENDCHAR
STARTCHAR char225
ENCODING 225
SWIDTH 44 0
DWIDTH 8 0
BBX 7 14 0 -1
BITMAP
18
18
20
20
3C
3C
06
06
7E
7E
C6
C6
7E
7E
ENDCHAR
STARTCHAR char226
ENCODING 226
SWIDTH 44 0
DWIDTH 8 0
BBX 7 14 0 -1
BITMAP
18
18
66
66
3C
3C
06
06
7E
7E
C6
C6
7E
7E
ENDCHAR
STARTCHAR char227
ENCODING 227
SWIDTH 44 0
DWIDTH 8 0
BBX 7 14 0 -1
BITMAP
72
72
9C
9C
3C
3C
06
06
7E
7E
C6
C6
7E
7E
ENDCHAR
STARTCHAR char228
ENCODING 228
SWIDTH 44 0
DWIDTH 8 0
BBX 7 14 0 -1
BITMAP
6C
6C
00
00
3C
3C
06
06
7E
7E
C6
C6
7E
7E
ENDCHAR
STARTCHAR char229
ENCODING 229
SWIDTH 44 0
DWIDTH 8 0
BBX 7 14 0 -1
BITMAP
3C
3C
66
66
3C
3C
06
06
7E
7E
C6
C6
7E
7E
ENDCHAR
STARTCHAR char230
ENCODING 230
SWIDTH 44 0
DWIDTH 8 0
BBX 8 12 0 -1
BITMAP
7E
7E
1B
1B
7F
7F
D8
D8
D8
D8
7F
7F
ENDCHAR
STARTCHAR char231
ENCODING 231
SWIDTH 44 0
DWIDTH 8 0
BBX 7 14 0 -3
BITMAP
78
78
CC
CC
C0
C0
C0
C0
C6
C6
7C
7C
30
30
ENDCHAR
STARTCHAR char232
ENCODING 232
SWIDTH 44 0
DWIDTH 8 0
BBX 7 14 0 -1
BITMAP
30
30
08
08
78
78
FC
FC
C0
C0
C6
C6
7C
7C
ENDCHAR
STARTCHAR char233
ENCODING 233
SWIDTH 44 0
DWIDTH 8 0
BBX 7 14 0 -1
BITMAP
18
18
20
20
78
78
FC
FC
C0
C0
C6
C6
7C
7C
ENDCHAR
STARTCHAR char234
ENCODING 234
SWIDTH 44 0
DWIDTH 8 0
BBX 7 14 0 -1
BITMAP
30
30
CC
CC
78
78
FC
FC
C0
C0
C6
C6
7C
7C
ENDCHAR
STARTCHAR char235
ENCODING 235
SWIDTH 44 0
DWIDTH 8 0
BBX 7 14 0 -1
BITMAP
6C
6C
00
00
78
78
FC
FC
C0
C0
C6
C6
7C
7C
ENDCHAR
STARTCHAR char236
ENCODING 236
SWIDTH 44 0
DWIDTH 8 0
BBX 6 14 1 -1
BITMAP
60
60
10
10
70
70
30
30
30
30
30
30
FC
FC
ENDCHAR
STARTCHAR char237
ENCODING 237
SWIDTH 44 0
DWIDTH 8 0
BBX 6 14 1 -1
BITMAP
30
30
40
40
70
70
30
30
30
30
30
30
FC
FC
ENDCHAR
STARTCHAR char238
ENCODING 238
SWIDTH 44 0
DWIDTH 8 0
BBX 6 14 1 -1
BITMAP
30
30
CC
CC
70
70
30
30
30
30
30
30
FC
FC
ENDCHAR
STARTCHAR char239
ENCODING 239
SWIDTH 44 0
DWIDTH 8 0
BBX 6 14 1 -1
BITMAP
D8
D8
00
00
70
70
30
30
30
30
30
30
FC
FC
ENDCHAR
STARTCHAR char240
ENCODING 240
SWIDTH 44 0
DWIDTH 8 0
BBX 7 14 0 -1
BITMAP
0C
0C
16
16
3E
3E
66
66
C6
C6
C6
C6
7E
7E
ENDCHAR
STARTCHAR char241
ENCODING 241
SWIDTH 44 0
DWIDTH 8 0
BBX 7 14 0 -1
BITMAP
72
72
9C
9C
F8
F8
CC
CC
C6
C6
C6
C6
C6
C6
ENDCHAR
STARTCHAR char242
ENCODING 242
SWIDTH 44 0
DWIDTH 8 0
BBX 7 14 0 -1
BITMAP
30
30
08
08
78
78
CC
CC
C6
C6
C6
C6
7C
7C
ENDCHAR
STARTCHAR char243
ENCODING 243
SWIDTH 44 0
DWIDTH 8 0
BBX 7 14 0 -1
BITMAP
18
18
20
20
78
78
CC
CC
C6
C6
C6
C6
7C
7C
ENDCHAR
STARTCHAR char244
ENCODING 244
SWIDTH 44 0
DWIDTH 8 0
BBX 7 14 0 -1
BITMAP
18
18
66
66
78
78
CC
CC
C6
C6
C6
C6
7C
7C
ENDCHAR
STARTCHAR char245
ENCODING 245
SWIDTH 44 0
DWIDTH 8 0
BBX 7 14 0 -1
BITMAP
72
72
9C
9C
78
78
CC
CC
C6
C6
C6
C6
7C
7C
ENDCHAR
STARTCHAR char246
ENCODING 246
SWIDTH 44 0
DWIDTH 8 0
BBX 7 14 0 -1
BITMAP
6C
6C
00
00
78
78
CC
CC
C6
C6
C6
C6
7C
7C
ENDCHAR
STARTCHAR char247
ENCODING 247
SWIDTH 44 0
DWIDTH 8 0
BBX 8 10 0 1
BITMAP
18
18
00
00
7F
FE
00
00
18
18
ENDCHAR
STARTCHAR char248
ENCODING 248
SWIDTH 44 0
DWIDTH 8 0
BBX 7 12 0 -1
BITMAP
78
78
CC
CC
DE
DE
F6
F6
E6
E6
7C
7C
ENDCHAR
STARTCHAR char249
ENCODING 249
SWIDTH 44 0
DWIDTH 8 0
BBX 7 14 0 -1
BITMAP
30
30
08
08
C6
C6
C6
C6
C6
C6
C6
C6
7E
7E
ENDCHAR
STARTCHAR char250
ENCODING 250
SWIDTH 44 0
DWIDTH 8 0
BBX 7 14 0 -1
BITMAP
18
18
20
20
C6
C6
C6
C6
C6
C6
C6
C6
7E
7E
ENDCHAR
STARTCHAR char251
ENCODING 251
SWIDTH 44 0
DWIDTH 8 0
BBX 7 14 0 -1
BITMAP
18
18
66
66
C6
C6
C6
C6
C6
C6
C6
C6
7E
7E
ENDCHAR
STARTCHAR char252
ENCODING 252
SWIDTH 44 0
DWIDTH 8 0
BBX 7 14 0 -1
BITMAP
6C
6C
00
00
C6
C6
C6
C6
C6
C6
C6
C6
7E
7E
ENDCHAR
STARTCHAR char253
ENCODING 253
SWIDTH 44 0
DWIDTH 8 0
BBX 8 16 0 -3
BITMAP
18
18
20
20
C6
C6
C6
C6
C6
C6
7E
7E
06
06
7C
7C
ENDCHAR
STARTCHAR char254
ENCODING 254
SWIDTH 44 0
DWIDTH 8 0
BBX 8 16 0 -3
BITMAP
C0
C0
C0
C0
F8
F8
CC
CC
C6
C6
FC
FC
C0
C0
C0
C0
ENDCHAR
STARTCHAR char255
ENCODING 255
SWIDTH 44 0
DWIDTH 8 0
BBX 8 16 0 -3
BITMAP
6C
6C
00
00
C6
C6
C6
C6
C6
C6
7E
7E
06
06
7C
7C
ENDCHAR
ENDFONT
